<svg xmlns="http://www.w3.org/2000/svg" width="512" height="512" viewBox="0 0 512 512">
  <defs>
    <linearGradient id="g" x1="0%" y1="0%" x2="100%" y2="100%">
      <stop offset="0%" stop-color="#34a06a"/>
      <stop offset="100%" stop-color="#2f8fd6"/>
    </linearGradient>
    <linearGradient id="leafGrad" x1="30%" y1="0%" x2="70%" y2="100%">
      <stop offset="0%" stop-color="#ffffff"/>
      <stop offset="100%" stop-color="#c9d6e6"/>
    </linearGradient>
    <filter id="depth" x="-40%" y="-40%" width="180%" height="180%">
      <feDropShadow dx="0" dy="3" stdDeviation="3" flood-color="#000000" flood-opacity="0.35"/>
    </filter>
  </defs>
  <rect width="512" height="512" rx="140" fill="url(#g)"/>
  <g transform="translate(90,90) scale(3.32)">
    <path d="M8,41 C22,27 36,27 50,41 C64,55 78,55 92,41" stroke="#ffffff" stroke-width="7" stroke-linecap="round" fill="none"/>
    <path d="M8,59 C22,45 36,45 50,59 C64,73 78,73 92,59" stroke="#ffffff" stroke-width="7" stroke-linecap="round" fill="none" opacity="0.55"/>
    <path d="M50,19 C70,23 74,46 50,81 C26,46 30,23 50,19 Z" fill="url(#leafGrad)" filter="url(#depth)" transform="rotate(180 50 50)"/>
  </g>
</svg>
